<svg xmlns="http://www.w3.org/2000/svg" viewBox="0 0 800 340" width="800" height="340" role="img" aria-labelledby="t"><title id="t">Career timeline</title><desc>Intern → Software Engineer in 12 months. Feb 2025: Cloud Intern, Netradyne. Built AlertFlow. Jul 2025: Associate SRE, Netradyne. Built TraceLens. Feb 2026: Software Engineer - SRE, Netradyne. AI-tooling lead, SRE org. 1 yr 9 mos at Netradyne so far.</desc><style>.pl{stroke-dasharray:90 2000;animation:pl 10s linear infinite}@keyframes pl{from{stroke-dashoffset:750}to{stroke-dashoffset:-20}}@media (prefers-reduced-motion:reduce){*{animation:none!important}.pl{opacity:0}}</style><defs><filter id="gc" x="-20%" y="-20%" width="140%" height="140%"><feGaussianBlur stdDeviation="3" result="b"/><feFlood flood-color="#66F6FF" flood-opacity=".55"/><feComposite in2="b" operator="in"/><feMerge><feMergeNode/><feMergeNode in="SourceGraphic"/></feMerge></filter><path id="D21" d="M22.6 0L8.2 0 8.2-69 22.6-69 22.6 0"/><path id="D32" d="M21 0L7.2 0 7.2-52.8 36.4-52.8Q52.6-52.8 52.6-36.6L52.6-36.6 52.6 0 38.8 0 38.8-37.6Q38.8-40.8 35.6-40.8L35.6-40.8 21-40.8 21 0"/><path id="D38" d="M6.8-16.2L6.8-16.2 6.8-69 20.6-69 20.6-52.8 37.8-52.8 37.8-40.8 20.6-40.8 20.6-15.2Q20.6-12 23.8-12L23.8-12 38.8-12 38.8-4.5 32.8 0 23 0Q6.8 0 6.8-16.2"/><path id="D2t" d="M6.4-16.2L6.4-16.2 6.4-36.6Q6.4-52.8 22.6-52.8L22.6-52.8 35.6-52.8Q51.8-52.8 51.8-36.6L51.8-36.6 51.8-21.3 20.2-21.3 20.2-15.2Q20.2-12 23.4-12L23.4-12 49.8-12 49.8-4.5 43.8 0 22.6 0Q6.4 0 6.4-16.2M20.2-37.6L20.2-31.9 38-31.9 38-37.6Q38-40.8 34.8-40.8L34.8-40.8 23.4-40.8Q20.2-40.8 20.2-37.6L20.2-37.6"/><path id="D36" d="M20.6 0L6.8 0 6.8-46Q10.5-52.8 21-52.8L21-52.8 31.8-52.8 37.8-48.3 37.8-40.8 24.7-40.8Q21.7-40.8 20.6-39.3L20.6-39.3 20.6 0"/><path id="D6mq" d="M8 -32h62l-20 -20l7 -7l32 32l-32 32l-7 -7l20 -20h-62z"/><path id="D2b" d="M11.9 0L5.2-5.2 5.2-13 36.2-13Q39.2-13 39.2-16L39.2-16 39.2-23.2Q39.2-26.1 36.7-26.5L36.7-26.5 17.2-30.5Q5.2-32.9 5.2-46.6L5.2-46.6 5.2-52.2Q5.2-69 22-69L22-69 44.9-69 51.6-63.8 51.6-56 22.6-56Q19.6-56 19.6-53L19.6-53 19.6-46.5Q19.6-43.7 22.1-43.2L22.1-43.2 41.6-39.3Q53.6-36.9 53.6-23.2L53.6-23.2 53.6-16.8Q53.6 0 36.8 0L36.8 0 11.9 0"/><path id="D33" d="M6.4-16.2L6.4-16.2 6.4-36.6Q6.4-52.8 22.6-52.8L22.6-52.8 36.6-52.8Q52.8-52.8 52.8-36.6L52.8-36.6 52.8-16.2Q52.8 0 36.6 0L36.6 0 22.6 0Q6.4 0 6.4-16.2M20.2-37.6L20.2-15.2Q20.2-12 23.4-12L23.4-12 35.8-12Q39-12 39-15.2L39-15.2 39-37.6Q39-40.8 35.8-40.8L35.8-40.8 23.4-40.8Q20.2-40.8 20.2-37.6L20.2-37.6"/><path id="D2u" d="M21 0L7.2 0 7.2-57.8Q7.2-74 23.4-74L23.4-74 33.2-74 39.2-69.5 39.2-62 24.2-62Q21-62 21-58.8L21-58.8 21-52.8 38.2-52.8 38.2-40.8 21-40.8 21 0"/><path id="D3b" d="M12.8 0L2.2-50.7 3.7-52.8 15.3-52.8 23.3-12 24-12 33.6-52.8 48.9-52.8 58.6-12 59.3-12 67.3-52.8 78.9-52.8 80.4-50.7 69.8 0 49.2 0 41.3-36.3 33.4 0 12.8 0"/><path id="D2p" d="M48.2 0L20.6 0Q4.4 0 4.4-15.9 4.4-31.8 20.6-31.8L20.6-31.8 34.4-31.8 34.4-37.6Q34.4-40.8 31.2-40.8L31.2-40.8 10-40.8 10-48.3 16-52.8 32-52.8Q48.2-52.8 48.2-36.6L48.2-36.6 48.2 0M18.2-18L18.2-15.2Q18.2-12 21.4-12L21.4-12 34.4-12 34.4-21.2 21.4-21.2Q18.2-21.2 18.2-18L18.2-18"/><path id="D1x" d="M55.4 0L8.2 0 8.2-69 55.4-69 55.4-56 22.6-56 22.6-42 52.4-42 52.4-29 22.6-29 22.6-13 55.4-13 55.4 0"/><path id="D2v" d="M6-16.2L6-16.2 6-36.6Q6-52.8 22.2-52.8L22.2-52.8 51.4-52.8 51.4 3.8Q51.4 20 35.2 20L35.2 20 16.5 20 10.5 15.5 10.5 8 34.4 8Q37.6 8 37.6 4.8L37.6 4.8 37.6 0 22.2 0Q6 0 6-16.2M19.8-37.6L19.8-15.2Q19.8-12 23-12L23-12 37.6-12 37.6-40.8 23-40.8Q19.8-40.8 19.8-37.6L19.8-37.6"/><path id="D2x" d="M21.3-61.5L6.9-61.5 6.9-75 21.3-75 21.3-61.5M21 0L7.2 0 7.2-52.8 21-52.8 21 0"/><path id="D1d" d="M51.4 0L8 0 8-13 23.3-13 23.3-56 10.5-56 10.5-63.8 17.2-69 37.7-69 37.7-13 51.4-13 51.4 0"/><path id="D1e" d="M52.6 0L5.2 0 5.2-22.5Q5.2-36.2 17.2-38.6L17.2-38.6 35.7-42.3Q38.2-42.8 38.2-45.6L38.2-45.6 38.2-53Q38.2-56 35.2-56L35.2-56 7.2-56 7.2-63.8 13.9-69 35.8-69Q52.6-69 52.6-52.2L52.6-52.2 52.6-45.7Q52.6-32 40.6-29.6L40.6-29.6 22.1-25.9Q19.6-25.4 19.6-22.6L19.6-22.6 19.6-13 52.6-13 52.6 0"/><path id="D31" d="M21 0L7.2 0 7.2-52.8 67.4-52.8Q83.6-52.8 83.6-36.6L83.6-36.6 83.6 0 69.8 0 69.8-37.6Q69.8-40.8 66.6-40.8L66.6-40.8 52.3-40.8 52.3 0 38.5 0 38.5-40.8 21-40.8 21 0"/><path id="D2w" d="M21 0L7.2 0 7.2-74 21-74 21-52.8 36.4-52.8Q52.6-52.8 52.6-36.6L52.6-36.6 52.6 0 38.8 0 38.8-37.6Q38.8-40.8 35.6-40.8L35.6-40.8 21-40.8 21 0"/><path id="D37" d="M11.4 0L5.4-4.5 5.4-12 28.4-12Q31.8-12 31.8-15.8L31.8-15.8Q31.8-19.7 29-20.2L29-20.2 18.2-22Q5.4-24.2 5.4-36.8L5.4-36.8Q5.4-52.8 21.6-52.8L21.6-52.8 37.1-52.8 43.1-48.3 43.1-40.8 22.4-40.8Q19-40.8 19-37L19-37Q19-33 22.1-32.5L22.1-32.5 32.8-30.7Q45.5-28.6 45.5-16.1L45.5-16.1Q45.5 0 29.2 0L29.2 0 11.4 0"/><path id="m1d" d="M54 0L9 0 9-8.2 28.8-8.2 28.8-65.5 9-50.7 9-60.7 25.5-73 37.8-73 37.8-8.2 54-8.2 54 0"/><path id="m3d" d="M27.4 18L17.8 18 25.9-3.4 5.5-55 15.5-55 28.3-21Q29-19.3 29.6-16.9 30.2-14.6 30.6-13L30.6-13Q31-14.6 31.6-16.9 32.2-19.3 32.8-21L32.8-21 44.8-55 54.5-55 27.4 18"/><path id="m36" d="M20.1 0L11.1 0 11.1-55 19.9-55 19.9-45.2Q20.9-49 23-51.5L23-51.5Q26.8-56 34.4-56L34.4-56Q43.1-56 48.3-50.6 53.4-45.1 53.4-35.8L53.4-35.8 53.4-32.5 44.4-32.5 44.4-35Q44.4-41.5 41.3-44.9 38.1-48.4 32.3-48.4L32.3-48.4Q26.6-48.4 23.4-44.9 20.1-41.4 20.1-35L20.1-35 20.1 0"/><path id="m1l" d="M28.7 0L18.7 0 39.4-33.2 39-33.5Q37.1-30.7 33.8-29.2 30.5-27.7 26.4-27.7L26.4-27.7Q20.5-27.7 16.1-30.5 11.6-33.3 9.2-38.4 6.8-43.6 6.8-50.5L6.8-50.5Q6.8-57.6 9.7-62.8 12.6-68.1 17.8-71 23-74 29.9-74L29.9-74Q36.9-74 42.2-71 47.4-68.1 50.3-62.8 53.2-57.6 53.2-50.5L53.2-50.5Q53.2-45 51.7-39.7 50.1-34.4 47-29.5L47-29.5 28.7 0M30-35L30-35Q36.4-35 40.3-39.2 44.2-43.5 44.2-50.5L44.2-50.5Q44.2-57.5 40.3-61.7 36.4-66 30-66L30-66Q23.6-66 19.7-61.7 15.8-57.5 15.8-50.5L15.8-50.5Q15.8-43.5 19.7-39.2 23.6-35 30-35"/><path id="m31" d="M14.9 0L6.6 0 6.6-55 14.5-55 14.5-48.4 15.1-48.4Q15.6-51.3 17.4-53.3L17.4-53.3Q19.8-56 24-56L24-56Q28.6-56 31.1-52.6L31.1-52.6Q32.4-50.9 33-48.4L33-48.4 33.4-48.4Q33.9-51.3 35.8-53.3L35.8-53.3Q38.3-56 42.5-56L42.5-56Q47.7-56 50.6-52.1 53.4-48.2 53.4-41.8L53.4-41.8 53.4 0 45.1 0 45.1-41.9Q45.1-45.3 43.7-47.2 42.2-49.1 39.4-49.1L39.4-49.1Q36.7-49.1 35.2-47.2 33.6-45.4 33.6-42L33.6-42 33.6 0 26.4 0 26.4-41.9Q26.4-45.4 24.9-47.2 23.3-49.1 20.5-49.1 17.7-49.1 16.3-47.2 14.9-45.4 14.9-42L14.9-42 14.9 0"/><path id="m33" d="M30 0.8L30 0.8Q23.4 0.8 18.6-1.7 13.8-4.2 11.2-9 8.5-13.7 8.5-20.2L8.5-20.2 8.5-34.8Q8.5-41.4 11.2-46.1 13.8-50.8 18.6-53.3 23.4-55.8 30-55.8L30-55.8Q36.6-55.8 41.4-53.3 46.2-50.8 48.9-46.1 51.5-41.4 51.5-34.9L51.5-34.9 51.5-20.2Q51.5-13.7 48.9-9 46.2-4.2 41.4-1.7 36.6 0.8 30 0.8M30-7.2L30-7.2Q35.9-7.2 39.2-10.5 42.5-13.8 42.5-20.2L42.5-20.2 42.5-34.8Q42.5-41.2 39.2-44.5 35.9-47.8 30-47.8L30-47.8Q24.2-47.8 20.9-44.5 17.5-41.2 17.5-34.8L17.5-34.8 17.5-20.2Q17.5-13.8 20.9-10.5 24.2-7.2 30-7.2"/><path id="m37" d="M32.5 0.8L28.3 0.8Q22.7 0.8 18.6-0.9 14.4-2.7 12-5.9 9.5-9.1 9-13.5L9-13.5 18-13.5Q18.6-10.6 21.3-8.9 23.9-7.2 28.3-7.2L28.3-7.2 32.5-7.2Q37.8-7.2 40.4-9.3 43-11.5 43-15.1L43-15.1Q43-18.6 40.7-20.7 38.3-22.7 33.7-23.4L33.7-23.4 26.3-24.6Q18.2-26 14.3-29.6 10.3-33.3 10.3-40.3L10.3-40.3Q10.3-47.7 15-51.7 19.7-55.8 29.1-55.8L29.1-55.8 32.9-55.8Q40.8-55.8 45.6-52.1 50.4-48.4 51.4-42.1L51.4-42.1 42.4-42.1Q41.8-44.7 39.4-46.2 37-47.8 32.9-47.8L32.9-47.8 29.1-47.8Q24-47.8 21.7-45.9 19.3-44 19.3-40.2L19.3-40.2Q19.3-36.8 21.3-35.2 23.3-33.6 27.6-32.9L27.6-32.9 35-31.7Q43.9-30.3 48-26.5 52-22.7 52-15.5L52-15.5Q52-7.9 47.2-3.5 42.3 0.8 32.5 0.8L32.5 0.8"/><path id="m2p" d="M25.2 1L25.2 1Q16.5 1 11.5-3.4 6.5-7.9 6.5-15.5L6.5-15.5Q6.5-23.2 11.5-27.6 16.5-32 25-32L25-32 42-32 42-37.5Q42-42.6 39-45.3 35.9-48.1 30.3-48.1L30.3-48.1Q25.4-48.1 22.1-46.1 18.8-44 18.3-40.5L18.3-40.5 9.3-40.5Q10.2-47.6 16-51.8 21.8-56 30.5-56L30.5-56Q40-56 45.5-51.1 51-46.2 51-37.8L51-37.8 51 0 42.2 0 42.2-10.5 42.1-10.5Q41.6-5.6 37.6-2.5L37.6-2.5Q32.9 1 25.2 1M27.4-6.1L27.4-6.1Q33.8-6.1 37.9-9.3 42-12.5 42-17.5L42-17.5 42-25.3 25.2-25.3Q20.7-25.3 18.1-22.8 15.5-20.3 15.5-16L15.5-16Q15.5-11.4 18.7-8.7 21.8-6.1 27.4-6.1"/><path id="m38" d="M51 0L36 0Q28.9 0 25-3.8 21-7.6 21-14.5L21-14.5 21-46.8 5.5-46.8 5.5-55 21-55 21-70.5 30-70.5 30-55 52-55 52-46.8 30-46.8 30-14.5Q30-8.2 36-8.2L36-8.2 51-8.2 51 0"/><path id="m26" d="M17.7 0L9 0 9-73 21-73 43.3-10.5Q43.1-13 42.9-16.7 42.6-20.3 42.5-24.3 42.3-28.4 42.3-32L42.3-32 42.3-73 51-73 51 0 39 0 16.8-62.5Q17-60.1 17.2-56.4 17.4-52.8 17.6-48.7 17.7-44.7 17.7-41L17.7-41 17.7 0"/><path id="m2t" d="M30 1L30 1Q23.5 1 18.7-1.6 13.8-4.2 11.2-9 8.5-13.7 8.5-20L8.5-20 8.5-35Q8.5-41.4 11.2-46.1 13.8-50.8 18.7-53.4 23.5-56 30-56 36.5-56 41.4-53.4 46.2-50.8 48.9-46.1 51.5-41.4 51.5-35L51.5-35 51.5-25.3 17.3-25.3 17.3-20Q17.3-13.5 20.6-10 23.9-6.6 30-6.6L30-6.6Q35.2-6.6 38.4-8.5 41.6-10.3 42.3-14L42.3-14 51.3-14Q50.4-7.1 44.6-3.1 38.7 1 30 1M17.3-32.1L42.7-32.1 42.7-35Q42.7-41.5 39.5-45 36.2-48.5 30-48.5L30-48.5Q23.9-48.5 20.6-45 17.3-41.5 17.3-35L17.3-35 17.3-32.1"/><path id="m2s" d="M26.8 1L26.8 1Q18.6 1 13.6-4.5 8.5-10 8.5-19.4L8.5-19.4 8.5-35.5Q8.5-45 13.5-50.5 18.5-56 26.8-56L26.8-56Q33.6-56 37.7-52.3L37.7-52.3Q41.1-49.2 41.7-44.5L41.7-44.5 42-44.5 41.8-57 41.8-73 50.8-73 50.8 0 41.8 0 41.8-10.5 41.7-10.5Q41.1-5.7 37.7-2.7L37.7-2.7Q33.6 1 26.8 1M29.8-6.8L29.8-6.8Q35.4-6.8 38.6-10.3 41.8-13.8 41.8-20L41.8-20 41.8-35Q41.8-41.2 38.6-44.7 35.4-48.2 29.8-48.2L29.8-48.2Q24.1-48.2 20.8-44.8 17.5-41.4 17.5-35L17.5-35 17.5-20Q17.5-13.6 20.8-10.2 24.1-6.8 29.8-6.8"/><path id="m32" d="M18.2 0L9.2 0 9.2-55 18.2-55 18.2-44.5 18.3-44.5Q18.9-49.5 22.1-52.5L22.1-52.5Q26-56 32.9-56L32.9-56Q41.2-56 46.1-50.9 51-45.8 51-37L51-37 51 0 42 0 42-36Q42-41.9 38.9-45.1 35.7-48.2 30.3-48.2L30.3-48.2Q24.7-48.2 21.5-44.8 18.2-41.4 18.2-35L18.2-35 18.2 0"/><path id="m2r" d="M30.4 1L30.4 1Q23.8 1 18.9-1.5 13.9-4 11.2-8.7 8.5-13.5 8.5-20L8.5-20 8.5-35Q8.5-41.6 11.2-46.3 13.9-51 18.9-53.5 23.8-56 30.4-56L30.4-56Q39.9-56 45.7-50.9 51.5-45.8 51.8-37L51.8-37 42.8-37Q42.5-42.3 39.3-45.2 36-48 30.4-48L30.4-48Q24.5-48 21-44.7 17.5-41.3 17.5-35.1L17.5-35.1 17.5-20Q17.5-13.8 21-10.4 24.5-7 30.4-7L30.4-7Q36-7 39.3-9.9 42.5-12.8 42.8-18L42.8-18 51.8-18Q51.5-9.2 45.7-4.1 39.9 1 30.4 1"/><path id="m39" d="M29.9 1L29.9 1Q20.4 1 14.7-4.6 9-10.3 9-20L9-20 9-55 18-55 18-20Q18-13.8 21.2-10.4 24.4-6.9 29.9-6.9L29.9-6.9Q35.5-6.9 38.8-10.4 42-13.8 42-20L42-20 42-55 51-55 51-20Q51-10.3 45.2-4.6 39.4 1 29.9 1"/><path id="m2x" d="M55.5 0L8.5 0 8.5-8.2 28-8.2 28-46.8 11-46.8 11-55 37-55 37-8.2 55.5-8.2 55.5 0M31.5-64.9L31.5-64.9Q28.2-64.9 26.3-66.6 24.4-68.3 24.4-71.2L24.4-71.2Q24.4-74.2 26.3-75.9 28.2-77.7 31.5-77.7L31.5-77.7Q34.8-77.7 36.7-75.9 38.6-74.2 38.6-71.2L38.6-71.2Q38.6-68.3 36.7-66.6 34.8-64.9 31.5-64.9"/><path id="m2v" d="M33.5 18L16.1 18 16.1 9.8 33.6 9.8Q37.8 9.8 39.8 7.9 41.7 6 41.7 2L41.7 2 41.7-5 41.9-15 41.7-15Q41.3-10.1 37.8-7L37.8-7Q33.8-3.5 27.1-3.5L27.1-3.5Q18.6-3.5 13.7-9 8.8-14.6 8.8-24L8.8-24 8.8-35.6Q8.8-45 13.7-50.5 18.6-56 27.1-56L27.1-56Q33.8-56 37.8-52.5L37.8-52.5Q41.3-49.4 41.7-44.5L41.7-44.5 41.8-44.5 41.8-55 50.7-55 50.7 2Q50.7 9.4 46.2 13.7 41.6 18 33.5 18L33.5 18M29.8-11.3L29.8-11.3Q35.4-11.3 38.6-14.8 41.8-18.3 41.8-24.5L41.8-24.5 41.8-35Q41.8-41.2 38.6-44.7 35.4-48.2 29.8-48.2L29.8-48.2Q24.1-48.2 21-44.8 17.8-41.4 17.8-35L17.8-35 17.8-24.5Q17.8-18.1 21-14.7 24.1-11.3 29.8-11.3"/><path id="m1y" d="M18.5 0L9.5 0 9.5-73.1 52.5-73.1 52.5-64.9 18.3-64.9 18.3-40.6 49.9-40.6 49.9-32.4 18.5-32.4 18.5 0"/><path id="m2q" d="M33.2 1L33.2 1Q26.4 1 22.3-2.7L22.3-2.7Q18.9-5.7 18.3-10.5L18.3-10.5 18.2-10.5 18.2 0 9.2 0 9.2-73 18.2-73 18.2-57 18-44.5 18.3-44.5Q18.9-49.2 22.4-52.3L22.4-52.3Q26.5-56 33.2-56L33.2-56Q41.5-56 46.5-50.5 51.5-45 51.5-35.5L51.5-35.5 51.5-19.4Q51.5-10 46.5-4.5 41.5 1 33.2 1M30.2-6.8L30.2-6.8Q35.9-6.8 39.2-10.2 42.5-13.6 42.5-20L42.5-20 42.5-35Q42.5-41.4 39.2-44.8 35.9-48.2 30.2-48.2L30.2-48.2Q24.7-48.2 21.5-44.7 18.2-41.2 18.2-35L18.2-35 18.2-20Q18.2-13.8 21.5-10.3 24.7-6.8 30.2-6.8"/><path id="m1e" d="M52.6 0L9.2 0 9.2-9.2 31.5-32.9Q37.2-39 39.8-43.7 42.4-48.5 42.4-52.9L42.4-52.9Q42.4-59 39.1-62.5 35.7-66 29.9-66L29.9-66Q23.5-66 19.9-62.4 16.2-58.8 16.2-52.5L16.2-52.5 7.2-52.5Q7.4-59.1 10.3-63.9 13.1-68.8 18.2-71.4 23.2-74 29.9-74L29.9-74Q36.5-74 41.4-71.4 46.2-68.9 48.8-64.2 51.4-59.5 51.4-53L51.4-53Q51.4-46.8 48.1-40.7 44.8-34.6 37.3-26.8L37.3-26.8 19.3-8.2 52.6-8.2 52.6 0"/><path id="m1c" d="M30 1L30 1Q23.3 1 18.4-1.6 13.4-4.3 10.7-9.1 8-14 8-20.5L8-20.5 8-52.5Q8-59.1 10.7-63.9 13.4-68.7 18.4-71.4 23.3-74 30-74L30-74Q36.8-74 41.7-71.4 46.6-68.7 49.3-63.9 52-59.1 52-52.5L52-52.5 52-20.5Q52-14 49.3-9.1 46.6-4.3 41.7-1.6 36.7 1 30 1M30-6.7L30-6.7Q36-6.7 39.7-10.5 43.3-14.4 43.3-20.5L43.3-20.5 43.3-52.5Q43.3-58.6 39.7-62.4 36-66.3 30-66.3L30-66.3Q24-66.3 20.4-62.4 16.7-58.6 16.7-52.5L16.7-52.5 16.7-20.5Q16.7-14.4 20.4-10.5 24-6.7 30-6.7M30-30.6L30-30.6Q27.3-30.6 25.7-32.3 24-34 24-36.8L24-36.8Q24-39.5 25.7-41.2 27.3-42.8 30-42.8L30-42.8Q32.7-42.8 34.4-41.2 36-39.5 36-36.8L36-36.8Q36-34 34.4-32.3 32.7-30.6 30-30.6"/><path id="m1h" d="M29.8 1L29.8 1Q20.9 1 15.2-3.6 9.5-8.2 8.5-16L8.5-16 17.5-16Q18-11.7 21.2-9.3 24.4-7 29.9-7L29.9-7Q36.2-7 39.4-10.4 42.5-13.8 42.5-20L42.5-20 42.5-27.1Q42.5-33.3 39.4-36.7 36.2-40.1 30-40.1L30-40.1Q26.1-40.1 23.2-38.1 20.3-36 19-32.6L19-32.6 10-32.6 10.5-73 48.9-73 48.9-64.8 19.2-64.8 18.9-40.5 19.2-40.5Q20-43.4 22.7-45.3L22.7-45.3Q26.4-48 32.7-48L32.7-48Q41.6-48.1 46.6-42.6 51.5-37 51.5-27.1L51.5-27.1 51.5-20Q51.5-10.3 45.8-4.6 40.1 1 29.8 1"/><path id="D1v" d="M7.2-16.8L7.2-16.8 7.2-52.2Q7.2-69 24-69L24-69 50.7-69 57.4-63.8 57.4-56 24.6-56Q21.6-56 21.6-53L21.6-53 21.6-16Q21.6-13 24.6-13L24.6-13 57.4-13 57.4-5.2 50.7 0 24 0Q7.2 0 7.2-16.8"/><path id="D30" d="M6.8-19.2L6.8-19.2 6.8-74 20.6-74 20.6-17.8Q20.6-11.6 27-10.9L27-10.9 27 1Q6.8 1 6.8-19.2"/><path id="D39" d="M6.8-16.2L6.8-16.2 6.8-52.8 20.6-52.8 20.6-15.2Q20.6-12 23.8-12L23.8-12 38.4-12 38.4-52.8 52.2-52.8 52.2 0 23 0Q6.8 0 6.8-16.2"/><path id="D2s" d="M6.4-16.2L6.4-16.2 6.4-36.6Q6.4-52.8 22.6-52.8L22.6-52.8 38-52.8 38-74 51.8-74 51.8 0 22.6 0Q6.4 0 6.4-16.2M20.2-37.6L20.2-15.2Q20.2-12 23.4-12L23.4-12 38-12 38-40.8 23.4-40.8Q20.2-40.8 20.2-37.6L20.2-37.6"/><path id="m1u" d="M31.5 0L9.3 0 9.3-73 30-73Q40-73 45.7-68 51.3-63 51.3-54.1L51.3-54.1Q51.3-49.1 49.2-45.4 47.1-41.7 43.3-39.7L43.3-39.7Q41.9-39 40.4-38.6L40.4-38.6Q42.3-38 44.1-37.1L44.1-37.1Q48.3-34.8 50.7-30.5 53-26.2 53-20.3L53-20.3Q53-14.1 50.4-9.5 47.8-4.9 43-2.4 38.2 0 31.5 0L31.5 0M18.1-34.1L18.1-8.1 30.5-8.1Q36.8-8.1 40.5-11.5 44.1-14.8 44.1-20.6L44.1-20.6Q44.1-26.6 40.5-30.3 36.8-34.1 30.5-34.1L30.5-34.1 18.1-34.1M18.1-64.9L18.1-41.9 29.9-41.9Q35.7-41.9 39.1-45 42.4-48.1 42.4-53.4 42.4-58.7 39.1-61.8 35.8-64.9 30-64.9L30-64.9 18.1-64.9"/><path id="m30" d="M55 0L37.5 0Q32.7 0 29.1-1.9 25.5-3.8 23.5-7.3 21.5-10.8 21.5-15.5L21.5-15.5 21.5-64.8 3-64.8 3-73 30.5-73 30.5-15.5Q30.5-12.1 32.4-10.1 34.3-8.2 37.5-8.2L37.5-8.2 55-8.2 55 0"/><path id="m1t" d="M14.2 0L5 0 24-73 36.1-73 55 0 45.9 0 41.1-19.4 19-19.4 14.2 0M26.4-49.6L20.8-27 39.2-27 33.6-49.5Q32-55.9 31.1-60.2 30.2-64.5 30-65.8L30-65.8Q29.8-64.5 28.9-60.2 28-55.9 26.4-49.6L26.4-49.6"/><path id="m3b" d="M22.2 0L12.3 0 3.5-55 11.5-55 17-16Q17.3-13.8 17.7-11.2 18-8.7 18.2-7L18.2-7Q18.4-8.7 18.9-11.2 19.3-13.8 19.6-16L19.6-16 25.7-55 34.3-55 40.4-16Q40.7-13.8 41.2-11.2 41.6-8.7 41.8-7L41.8-7Q42-8.7 42.5-11.2 42.9-13.8 43.2-16L43.2-16 48.9-55 56.5-55 47.3 0 37.4 0 31.5-38Q31.1-40.8 30.6-43.6 30.1-46.4 29.9-48L29.9-48Q29.7-46.4 29.3-43.6 28.9-40.8 28.4-38L28.4-38 22.2 0"/><path id="m22" d="M27 1L27 1Q16.5 1 10.5-4.9 4.5-10.8 4.5-21L4.5-21 13.5-21Q13.5-14.3 17.1-10.6 20.6-7 27-7L27-7Q33.4-7 37-10.6 40.5-14.3 40.5-21L40.5-21 40.5-64.8 23-64.8 23-73 49.5-73 49.5-21Q49.5-10.8 43.5-4.9 37.4 1 27 1"/><path id="D1t" d="M3.6 0L1.8-2.7 22.3-69 44.3-69 64.8-2.7 63 0 51 0 46.8-14 19.8-14 15.6 0 3.6 0M32.5-56L23.7-27 42.9-27 34.1-56 32.5-56"/><path id="D2r" d="M6.4-16.2L6.4-16.2 6.4-36.6Q6.4-52.8 22.6-52.8L22.6-52.8 41.2-52.8 47.2-48.3 47.2-40.8 23.4-40.8Q20.2-40.8 20.2-37.6L20.2-37.6 20.2-15.2Q20.2-12 23.4-12L23.4-12 47.2-12 47.2-4.5 41.2 0 22.6 0Q6.4 0 6.4-16.2"/><path id="D2a" d="M22.6 0L8.2 0 8.2-69 41.8-69Q58.6-69 58.6-52.2L58.6-52.2 58.6-40.8Q58.6-28.3 49.3-25.2L49.3-25.2 60.6-3 58.9 0 46.5 0 34.3-24 22.6-24 22.6 0M22.6-56L22.6-37 41.2-37Q44.2-37 44.2-40L44.2-40 44.2-53Q44.2-56 41.2-56L41.2-56 22.6-56"/><path id="m2c" d="M34.5 0L25.5 0 25.5-64.9 5.5-64.9 5.5-73.1 54.5-73.1 54.5-64.9 34.5-64.9 34.5 0"/><path id="m24" d="M53.5 0L11.5 0 11.5-73 20.5-73 20.5-8.2 53.5-8.2 53.5 0"/><path id="m1i" d="M30.1 1L30.1 1Q23.1 1 17.9-1.9 12.6-4.9 9.7-10.2 6.8-15.5 6.8-22.5L6.8-22.5Q6.8-28 8.4-33.3 9.9-38.6 13-43.5L13-43.5 31.3-73 41.3-73 20.6-39.8 21-39.5Q22.9-42.3 26.2-43.8 29.5-45.3 33.6-45.3L33.6-45.3Q39.6-45.3 44-42.5 48.4-39.7 50.8-34.6 53.2-29.5 53.2-22.5L53.2-22.5Q53.2-15.5 50.3-10.2 47.4-4.9 42.3-1.9 37.1 1 30.1 1M30-7L30-7Q36.4-7 40.3-11.2 44.2-15.5 44.2-22.5L44.2-22.5Q44.2-29.5 40.3-33.7 36.4-38 30-38L30-38Q23.6-38 19.7-33.7 15.8-29.5 15.8-22.5L15.8-22.5Q15.8-15.5 19.7-11.2 23.6-7 30-7"/><path id="m21" d="M49.5 0L10.5 0 10.5-8.2 25.4-8.2 25.4-64.8 10.5-64.8 10.5-73 49.5-73 49.5-64.8 34.6-64.8 34.6-8.2 49.5-8.2 49.5 0"/><path id="m19" d="M46-29L14-29 14-37 46-37 46-29"/><path id="m18" d="M24.5 16L16.5 16 24.5-15.1 37.5-15.1 24.5 16"/><path id="m2b" d="M30.4 1L30.4 1Q23.2 1 18.1-1.4 12.9-3.8 10.1-8.3 7.3-12.8 7.2-19L7.2-19 16.2-19Q16.2-13.5 20-10.3 23.7-7.1 30.4-7.1L30.4-7.1Q36.7-7.1 40.3-10.2 43.8-13.3 43.8-18.8L43.8-18.8Q43.8-23.2 41.5-26.5 39.1-29.8 34.7-31.1L34.7-31.1 24.8-34.2Q17.3-36.5 13.3-41.9 9.2-47.3 9.2-54.6L9.2-54.6Q9.2-60.5 11.9-64.9 14.5-69.2 19.3-71.6 24.1-74.1 30.6-74.1L30.6-74.1Q40.2-74.1 46-68.7 51.8-63.4 51.9-54.5L51.9-54.5 42.9-54.5Q42.9-59.9 39.7-62.9 36.4-66 30.5-66L30.5-66Q24.7-66 21.5-63.2 18.2-60.4 18.2-55.4L18.2-55.4Q18.2-50.9 20.6-47.6 23-44.3 27.5-42.9L27.5-42.9 37.5-39.7Q44.8-37.4 48.8-31.9 52.8-26.4 52.8-19L52.8-19Q52.8-13 50-8.5 47.2-4 42.2-1.5 37.1 1 30.4 1"/><path id="m2a" d="M18.2 0L9.2 0 9.2-73 31.8-73Q38.3-73 43.2-70.4 48.1-67.7 50.8-63 53.5-58.3 53.5-52L53.5-52Q53.5-44.6 49.7-39.3 45.8-34 39.2-32L39.2-32 54.5 0 43.9 0 29.9-31 18.2-31 18.2 0M18.2-64.9L18.2-39.1 31.8-39.1Q37.4-39.1 40.8-42.7 44.2-46.2 44.2-52L44.2-52Q44.2-57.9 40.8-61.4 37.4-64.9 31.8-64.9L31.8-64.9 18.2-64.9"/><path id="m1x" d="M52 0L10 0 10-73 52-73 52-64.8 18.9-64.8 18.9-42.2 48.5-42.2 48.5-34.1 18.9-34.1 18.9-8.2 52-8.2 52 0"/></defs><rect x="1.5" y="1.5" width="797" height="337" rx="10" fill="#08121C" stroke="#18C8E0" stroke-opacity=".55" stroke-width="1.5"/><rect x="4.5" y="4.5" width="791" height="331" rx="7" fill="none" stroke="#66F6FF" stroke-opacity=".07"/><path d="M7 17V7H17M793 17V7H783M7 323V333H17M793 323V333H783" fill="none" stroke="#66F6FF" stroke-width="2" stroke-linecap="square"/><g transform="translate(32 58) scale(0.28)" fill="#E8FAFF"><use href="#D21" x="0"/><use href="#D32" x="30.8"/><use href="#D38" x="90.2"/><use href="#D2t" x="132.6"/><use href="#D36" x="190.8"/><use href="#D32" x="231.2"/><use href="#D6mq" x="314.6"/><use href="#D2b" x="438.6"/><use href="#D33" x="497.4"/><use href="#D2u" x="556.6"/><use href="#D38" x="597.8"/><use href="#D3b" x="640.2"/><use href="#D2p" x="722.8"/><use href="#D36" x="777.8"/><use href="#D2t" x="818.2"/><use href="#D1x" x="900.4"/><use href="#D32" x="960.8"/><use href="#D2v" x="1020.2"/><use href="#D2x" x="1078.4"/><use href="#D32" x="1106.6"/><use href="#D2t" x="1166"/><use href="#D2t" x="1224.2"/><use href="#D36" x="1282.4"/><use href="#D2x" x="1346.8"/><use href="#D32" x="1375"/><use href="#D1d" x="1458.4"/><use href="#D1e" x="1516.2"/><use href="#D31" x="1598"/><use href="#D33" x="1688.4"/><use href="#D32" x="1747.6"/><use href="#D38" x="1807"/><use href="#D2w" x="1849.4"/><use href="#D37" x="1908.8"/></g><g transform="translate(32 92) scale(0.24)" fill="#7FA6B5"><use href="#m1d" x="0"/><use href="#m3d" x="120"/><use href="#m36" x="180"/><use href="#m1l" x="300"/><use href="#m31" x="420"/><use href="#m33" x="480"/><use href="#m37" x="540"/><use href="#m2p" x="660"/><use href="#m38" x="720"/><use href="#m26" x="840"/><use href="#m2t" x="900"/><use href="#m38" x="960"/><use href="#m36" x="1020"/><use href="#m2p" x="1080"/><use href="#m2s" x="1140"/><use href="#m3d" x="1200"/><use href="#m32" x="1260"/><use href="#m2t" x="1320"/><use href="#m2p" x="1440"/><use href="#m32" x="1500"/><use href="#m2s" x="1560"/><use href="#m2r" x="1680"/><use href="#m33" x="1740"/><use href="#m39" x="1800"/><use href="#m32" x="1860"/><use href="#m38" x="1920"/><use href="#m2x" x="1980"/><use href="#m32" x="2040"/><use href="#m2v" x="2100"/></g><path d="M70 160H730" stroke="#0B5D6B" stroke-width="3"/><path class="pl" d="M70 160H730" stroke="#66F6FF" stroke-width="3" filter="url(#gc)"/><circle cx="70" cy="160" r="8" fill="#08121C" stroke="#66F6FF" stroke-width="2.5"/><g transform="translate(32 134) scale(0.24)" fill="#7FA6B5"><use href="#m1y" x="0"/><use href="#m2t" x="60"/><use href="#m2q" x="120"/><use href="#m1e" x="240"/><use href="#m1c" x="300"/><use href="#m1e" x="360"/><use href="#m1h" x="420"/></g><g transform="translate(32 210) scale(0.26)" fill="#E8FAFF"><use href="#D1v" x="0"/><use href="#D30" x="62.4"/><use href="#D33" x="93.4"/><use href="#D39" x="152.6"/><use href="#D2s" x="212"/><use href="#D21" x="295"/><use href="#D32" x="325.8"/><use href="#D38" x="385.2"/><use href="#D2t" x="427.6"/><use href="#D36" x="485.8"/><use href="#D32" x="526.2"/></g><g transform="translate(32 244) scale(0.24)" fill="#7FA6B5"><use href="#m1u" x="0"/><use href="#m39" x="60"/><use href="#m2x" x="120"/><use href="#m30" x="180"/><use href="#m38" x="240"/><use href="#m1t" x="360"/><use href="#m30" x="420"/><use href="#m2t" x="480"/><use href="#m36" x="540"/><use href="#m38" x="600"/><use href="#m1y" x="660"/><use href="#m30" x="720"/><use href="#m33" x="780"/><use href="#m3b" x="840"/></g><circle cx="400" cy="160" r="8" fill="#08121C" stroke="#66F6FF" stroke-width="2.5"/><g transform="translate(342.4 134) scale(0.24)" fill="#7FA6B5"><use href="#m22" x="0"/><use href="#m39" x="60"/><use href="#m30" x="120"/><use href="#m1e" x="240"/><use href="#m1c" x="300"/><use href="#m1e" x="360"/><use href="#m1h" x="420"/></g><g transform="translate(312.8 210) scale(0.26)" fill="#E8FAFF"><use href="#D1t" x="0"/><use href="#D37" x="66.6"/><use href="#D37" x="117.4"/><use href="#D33" x="168.2"/><use href="#D2r" x="227.4"/><use href="#D2x" x="279.2"/><use href="#D2p" x="307.4"/><use href="#D38" x="362.4"/><use href="#D2t" x="404.8"/><use href="#D2b" x="487"/><use href="#D2a" x="545.8"/><use href="#D1x" x="610.6"/></g><g transform="translate(292 244) scale(0.24)" fill="#7FA6B5"><use href="#m1u" x="0"/><use href="#m39" x="60"/><use href="#m2x" x="120"/><use href="#m30" x="180"/><use href="#m38" x="240"/><use href="#m2c" x="360"/><use href="#m36" x="420"/><use href="#m2p" x="480"/><use href="#m2r" x="540"/><use href="#m2t" x="600"/><use href="#m24" x="660"/><use href="#m2t" x="720"/><use href="#m32" x="780"/><use href="#m37" x="840"/></g><circle cx="730" cy="160" r="11" fill="#66F6FF" stroke="#66F6FF" stroke-width="2.5"/><g transform="translate(652.8 134) scale(0.24)" fill="#7FA6B5"><use href="#m1y" x="0"/><use href="#m2t" x="60"/><use href="#m2q" x="120"/><use href="#m1e" x="240"/><use href="#m1c" x="300"/><use href="#m1e" x="360"/><use href="#m1i" x="420"/></g><g transform="translate(538.1 210) scale(0.26)" fill="#66F6FF"><use href="#D2b" x="0"/><use href="#D33" x="58.8"/><use href="#D2u" x="118"/><use href="#D38" x="159.2"/><use href="#D3b" x="201.6"/><use href="#D2p" x="284.2"/><use href="#D36" x="339.2"/><use href="#D2t" x="379.6"/><use href="#D1x" x="461.8"/><use href="#D32" x="522.2"/><use href="#D2v" x="581.6"/><use href="#D2x" x="639.8"/><use href="#D32" x="668"/><use href="#D2t" x="727.4"/><use href="#D2t" x="785.6"/><use href="#D36" x="843.8"/></g><g transform="translate(720.2 240) scale(0.26)" fill="#66F6FF"><use href="#D2b" x="0"/><use href="#D2a" x="58.8"/><use href="#D1x" x="123.6"/></g><g transform="translate(537.6 274) scale(0.24)" fill="#7FA6B5"><use href="#m1t" x="0"/><use href="#m21" x="60"/><use href="#m19" x="120"/><use href="#m38" x="180"/><use href="#m33" x="240"/><use href="#m33" x="300"/><use href="#m30" x="360"/><use href="#m2x" x="420"/><use href="#m32" x="480"/><use href="#m2v" x="540"/><use href="#m30" x="660"/><use href="#m2t" x="720"/><use href="#m2p" x="780"/><use href="#m2s" x="840"/><use href="#m18" x="900"/></g><g transform="translate(667.2 302) scale(0.24)" fill="#7FA6B5"><use href="#m2b" x="0"/><use href="#m2a" x="60"/><use href="#m1x" x="120"/><use href="#m33" x="240"/><use href="#m36" x="300"/><use href="#m2v" x="360"/></g></svg>